# xmcd
#
# Track frame offsets:
#	150
#	12386
#	24755
#	37273
#	47749
#	69518
#	78772
#	92173
#	103010
#	119885
#	133714
#	147746
#	162058
#	179152
#	193249
#	207296
#	221867
#
# Disc length: 3105 seconds
#
# Revision: 1
# Processed by: cddbd v1.5.2PL0 Copyright (c) Steve Scherf et al.
# Submitted via: EasyCDDAExtractor 11.9.9.666
#
DISCID=070c1f11
DTITLE=Various Artist - Love Songs From The 50's Cd5 Of 5
DYEAR=1900
DGENRE=Blues
TTITLE0=Louis Armstrong - When the Saints Go Marching In
TTITLE1=Pat Boone - Would You Like to Take a Walk
TTITLE2=Dinah Washington - Just One More Chance
TTITLE3=Pat Boone - No Other Arms
TTITLE4=Louis Armstrong - Chantez les bas (sing em low)
TTITLE5=Elvis Presley - Don't Be Cruel
TTITLE6=Ella Fizgerald - It's Wonderful
TTITLE7=Dean Martin - Innamorata
TTITLE8=Nat King Cole - Lush Life
TTITLE9=Frank Sinatra - If You Are But a Dream
TTITLE10=Perry Como - If
TTITLE11=Billie Holiday - Deep Song
TTITLE12=Frank Sinatra - Begin the Beguine
TTITLE13=Frank Sinatra - Melancholy Mood
TTITLE14=Frank Sinatra - Laura
TTITLE15=Sammy Davis Jr. - The Way You Look Tonight
TTITLE16=The Platters - Remember When
EXTD=
EXTT0=
EXTT1=
EXTT2=
EXTT3=
EXTT4=
EXTT5=
EXTT6=
EXTT7=
EXTT8=
EXTT9=
EXTT10=
EXTT11=
EXTT12=
EXTT13=
EXTT14=
EXTT15=
EXTT16=
PLAYORDER=
